<svg xmlns="http://www.w3.org/2000/svg" viewBox="0 0 600 600">
    <path fill="#d6d6e9" stroke="#d6d6e9" stroke-miterlimit="10"
        d="M535.15 383.93l-141.41-37.56c-7.5-1.99-20.58-3.2-23.88-11.59-.5-1.28-.85-2.63-1.12-4.02 1.79-1.57 2.98-3.79 2.78-6.22-4.14-49.28-10.15-98.41-17.99-147.24-.16-2.02-.5-4.05-.98-6.02-1.54-9.43-3.15-18.84-4.83-28.25-.56-3.16-2.79-5.01-5.43-5.71-.44-1.59-.89-3.18-1.35-4.77-2.21-7.66-10.66-7.47-14.56-2.82-33.43-6.68-67.59-6.68-101.57-6.99-17.79-.17-35.61-.48-53.34-2.08-3.86-.35-7.72-.79-11.56-1.27a68.537 68.537 0 00-16.18-3.18c-1.05-.08-2.07.11-3.02.49-7.12-1.06-14.23-2.13-21.37-3.02-6.73-.84-13.52-1.51-20.33-1.85-1.41-.41-2.83-.65-4.27-.67-1.33-.02-2.59.15-3.8.45-8.32-.05-16.63.51-24.85 2-3.99.72-7.53 2.55-9.64 6.15-2.37 4.06-1.58 9.02-1.25 13.45.7 9.18 1.39 18.35 2.09 27.53l8.28 109.11 4.15 54.62c1.27 16.78 1.48 34.14 4.94 50.65 3.35 15.99 12.11 27.98 24.78 37.97 14.3 11.28 28.89 22.21 43.34 33.31 14.68 11.27 29.35 22.54 44.04 33.8 6.42 4.92 13.14 9.35 21.61 8.55 7.83-.73 15.13-5 22.52-7.44 31.72-10.47 65.51-11.34 97.9-18.9 16.66-3.89 32.44-10.25 48.46-16.14 16.37-6.01 32.86-10.34 50.2-12.41 31.8-3.8 65.42-4.55 93.66-21.59a87.077 87.077 0 0017.73-14.14c4.37-4.55 2.54-12.54-3.75-14.21zM221.49 273.17c-.45-.57-.92-1.12-1.41-1.65-.71-1.99-1.42-3.91-2.1-5.76 1.2 2.46 2.38 4.92 3.51 7.41zM96.28 131.23c-.02-.11-.05-.87-.06-1.73 1.18.93 2.61 1.74 3.87 2.6-1.2-.14-2.43-.2-3.67-.18-.04-.23-.11-.46-.14-.69zm199 87.11c-1.67-2.72-3.38-5.41-5.13-8.09.02-.82.04-1.65.08-2.47 1.8 3.47 3.48 6.99 5.05 10.56zm29-44.85l-.3-.45c.02-.81.02-1.63 0-2.44l.33 2.92-.04-.04zm-1.21-11.02c-.49-2.1-1.21-4.13-2.27-6.04.54.22 1.11.55 1.69.96.19 1.69.38 3.39.58 5.08zm-41.27-1.29a88.538 88.538 0 01-13.66-15.41c7.34.68 14.47 3.26 20.71 7.39-3.13 1.95-5.43 4.77-7.05 8.02zm-21.79 42.67c-1.32-1.7-2.65-3.38-4-5.05 1.1-.61 2.08-1.36 2.94-2.2.3 2.43.64 4.85 1.06 7.25zm-148.54-44.72c-1.45-1.91-2.83-3.87-4.15-5.87 1.25 1 2.5 2.17 3.71 3.46.13.81.28 1.61.44 2.41zm21.32 76.79c4.26 12.78 7.46 25.91 9.53 39.22.06.37.11.75.17 1.12a516.03 516.03 0 01-7.88-16.85 268.14 268.14 0 00-2.48-22.4c-.29-1.91-.61-3.82-.95-5.73.55 1.54 1.08 3.08 1.6 4.63zm109.65-53.01c-.65-1.41-1.28-2.83-1.91-4.25 1.14 1.54 2.23 3.12 3.26 4.73-.38-.07-.76-.15-1.14-.23l-.22-.25zm-53.87 147.75l-.03-.48c.07-.33.13-.67.19-1 .3.78.59 1.57.88 2.36 0 .34-.01.68-.02 1.02-.34-.63-.68-1.27-1.02-1.9zm45.45-106.81a350.78 350.78 0 00-5.36-7.46c-2.02-3.85-3.94-7.75-5.75-11.7 18.16 22.08 34.03 46.11 46.93 71.58-5.72-6.72-11.19-13.67-16.41-20.73-5.87-11-12.4-21.62-19.41-31.7zm-14.33-64.64a26.77 26.77 0 00-.25 4.85c-2.17-.96-4.39-1.65-6.63-2.01-2.61-3.32-5.36-6.47-7.92-9.41-1.12-1.28-2.26-2.56-3.42-3.83 5.89 3.77 11.97 7.25 18.21 10.4zm.07 216.83c.58-5.64.92-11.3 1.02-16.96 1.4 1.75 2.8 3.49 4.21 5.23.69 9.96 1.11 19.95 1.37 29.93-1.49-2.22-3-4.43-4.53-6.63-.63-3.87-1.3-7.73-2.07-11.58zm122.58-11.15c1.22-.06 2.48-.44 3.65-1.07.15.75.33 1.5.55 2.22-1.13-.14-2.35-.01-3.63.43-.19-.52-.38-1.05-.57-1.57zm-147-222.48c-1.18-1.16-2.37-2.31-3.59-3.43 1.07.05 2.14.1 3.21.14-.06 1.11.06 2.23.38 3.29zm85.75 197.63c-.12-.02-.24-.04-.37-.07-.02-.7-.06-1.4-.1-2.1.64-1.1 1.3-2.19 1.96-3.28.58.5 1.16.99 1.75 1.47-1.09 1.32-2.18 2.64-3.24 3.98zm72.4 34.03c1.97.89 4.13 1.36 6.36 1.61a87.269 87.269 0 00-8.05 4.45c1.31-1.91 1.82-4.04 1.68-6.06zM245.57 139.93c.16.9.43 1.78.84 2.59 2.2 4.37 4.71 8.54 7.49 12.52-2.99-.98-5.95-2.03-8.89-3.16-1.52-1.77-3.04-3.56-4.56-5.31-2.56-2.96-6.89-2.88-10.13-1.41-2.7-1.94-5.5-3.75-8.36-5.45 7.87.08 15.74.12 23.61.22zm-169.34 46.1l-1.32-17.43c-.55-7.21-1.09-14.42-1.64-21.63l-.82-10.82c-.15-1.98-.67-4.46-.75-6.73 2.25-.34 5.85-.36 7.53-.44 0 .4 0 .81.01 1.21-2.59 1.48-4.57 4.21-4.72 7.4-.49 10.44 1.65 20.72 5.92 30.1a98.25 98.25 0 00-.67 8.22c-1.76 2.93-2.86 6.48-3.54 10.11zm30.2 210.88c-8.32-7.28-13.07-15.48-15.35-26.31-.78-3.7-1.31-7.46-1.71-11.24 2.36 5.05 5.22 10.16 10.14 12.82 4.31 11.96 10.2 23.32 17.94 33.72-3.76-2.91-7.46-5.88-11.02-8.99zm29.23 22.74c-3.11-2.39-6.27-4.74-9.42-7.1 1.53-.09 3.04-.69 4.37-1.62 2.14 3.09 4.37 6.12 6.68 9.07.36.57.7 1.15 1.06 1.72-.89-.69-1.79-1.38-2.68-2.06zm94.13 30.18c-1.25 2.29-1.42 4.97-.56 7.29-1.32 2.38-1.04 4.83.17 6.87-1.27.39-2.53.8-3.78 1.22-5.21 1.76-10.2 4.16-15.42 5.87-5.52 1.8-8.86-1.05-13.19-4.33-.77-.58-1.53-1.17-2.3-1.75 1.49-.83 2.78-2.06 3.66-3.49 1.83 1.97 3.65 3.95 5.43 5.97 3.04 3.44 8.91 3.11 12.02 0 .32-.32.6-.66.85-1 6.12-.23 10.69-9.13 5.92-14.62 2-.24 3.94-1.09 5.26-2.41 3.56-3.56 2.85-8.4 0-12.02-1.53-1.93-3.03-3.88-4.53-5.83.5-2.28.88-4.59 1.13-6.93.88 1.34 1.76 2.69 2.65 4.03.46 2.33 1.72 4.02 3.37 5.07.06.09.12.17.17.26.4.97.98 1.8 1.69 2.51.1.15.2.3.3.44-.42 1.64-.84 3.29-1.23 4.94-.38 1.59-.23 3.16.27 4.6-.62 1.11-1.25 2.22-1.86 3.33zm30.27 7.01l-.15.03c2.48-1.29 4.95-2.62 7.39-3.98 2.38-1.15 4.74-2.35 7.06-3.62a15.49 15.49 0 005.1 4.51c-6.48.95-12.95 1.94-19.4 3.07zm34.83-19.37c-1.16.46-2.38.87-3.6 1.11-.02 0-.05 0-.08.01 2.75-2 5.43-4.08 8.04-6.25.69-.4 1.38-.79 2.07-1.19-.07 1.12-.05 2.25.07 3.38-2.14 1.07-4.31 2.07-6.5 2.93zm23.66-65.14c.61.76 1.21 1.52 1.82 2.29a29.61 29.61 0 00-4.58 1.91c.93-1.4 1.84-2.8 2.76-4.2zm44.55 56.51c-4 2.63-8.25 4.59-12.87 5.83a41.32 41.32 0 01-10.59 1.43l1.41-.93c1.5-.61 3.01-1.19 4.53-1.73a125.81 125.81 0 0115.49-4.36c.78-.17 1.56-.31 2.34-.46-.11.07-.21.15-.32.22zm6.69-69.85c-1.78-.08-5.28.28-7.78-.1-.53-2.32-.51-5.25-.61-7.66 3.63 3.22 8.1 5.63 13.05 7.39.72.26 1.45.49 2.17.73-2.28-.12-4.56-.25-6.84-.36zm25.48 20.77a9.41 9.41 0 00-1.66-2.31c2.27.17 4.53.37 6.79.56-1.72.57-3.43 1.15-5.14 1.75zm39.2 9.64c-.73.39-1.47.78-2.2 1.17-2.5-2.1-6.14-2.95-9.72-1.2-.54.26-1.07.53-1.61.79-.17-3.9-3.35-7.84-7.2-8.74a9.993 9.993 0 00-1.71-2.33c11.32 1.15 22.62 2.54 33.88 4.22-3.89 1.91-7.7 3.95-11.43 6.1zm25.45 2.03c.19-2.19-.61-4.45-2.05-6.23 3.81.63 7.61 1.29 11.4 1.98-3.11 1.44-6.22 2.86-9.35 4.26zm40.98 12.38c.1-1 .04-2.05-.21-3.12.65-.76 1.3-1.5 1.76-2.17 1.05-1.56 1.97-3.22 2.61-4.98l9.92 2.64c-4.46 3.03-9.17 5.54-14.08 7.64z">
    </path>
    <path fill="#4e4f66"
        d="M369.25 332.41c-3.14-29.7-6.3-59.39-9.4-89.09-3.14-30.1-5.82-60.36-3.3-90.61.38-4.56-3.41-6.61-7.03-6.17-.79-.9-1.82-1.54-3.04-1.71-9.65-1.29-19.33-2.32-29.01-3.14 1.19-3.77-.82-8.69-6.06-8.76-80.36-1.02-160.72-2.05-241.08-3.07-2.47-.03-4.22 1.04-5.26 2.59-3.07.25-5.9 2.33-5.79 6.24 2.19 80.31 7.27 160.52 15.21 240.48.46 4.64 5.35 8.45 9.96 5.61.6-.37 1.2-.72 1.8-1.07.77.13 1.6.14 2.48 0 72.43-12.51 145.2-23.08 218.22-31.57 20.56-2.39 41.14-4.62 61.73-6.7 8.2-.83 8.47-13.25.57-13.03zm-221.81 28.5c-6.62 1.04-13.23 2.1-19.84 3.17-1.06-1.31-2.68-2.23-4.86-2.31a79.856 79.856 0 00-36.03 7.05c-7-72.83-11.63-145.86-13.87-218.98h.08l105.44.99c35.2.33 70.44.2 105.62 1.68 19.71.83 39.43 2.23 58.98 4.85h.02c-1.89 28.7.66 57.4 3.64 85.95 3.15 30.14 6.36 60.28 9.54 90.42-69.8 7.26-139.4 16.29-208.71 27.17z">
    </path>
    <path fill="#A5A6BC"
        d="M90.67 159c-1.26-.83-3.2-1-4.62-.6-.1.03-.21.07-.32.11-1.95-.01-3.89.7-5.26 2.13-1.44 1.51-2.2 3.78-1.54 5.84.68 2.14 2.01 4.01 3.99 5.12 2.32 1.29 5.25 1.37 7.56 0 2.25-1.35 3.48-3.71 3.64-6.27.16-2.62-1.33-4.91-3.45-6.31zM125.88 160.74c-.32-.54-.77-1.07-1.3-1.52-.28-.83-.72-1.6-1.38-2.2l-1.21-.94c-.94-.54-1.95-.82-3.03-.82-1.43-.17-3.04.39-4.27 1.07-1.18.65-2.34 1.85-3 3.02-.26.45-.45.92-.62 1.39-.71-1.5-1.8-2.77-3.31-3.61-1.9-1.05-4.08-1.31-6.19-.78-2.5.63-4.43 2.69-5.2 5.09-.57 1.78-.39 3.67.33 5.37.91 2.15 2.53 3.7 4.76 4.43 1.94.63 4.3.34 6-.8 1.1-.74 1.9-1.5 2.59-2.66.04-.06.07-.13.1-.19.3-.32.57-.67.78-1.06.04-.08.08-.17.12-.25.27.73.66 1.43 1.16 2.08 3.9 5.05 12.76 3.33 14.27-3 .37-1.55.21-3.23-.6-4.62z">
    </path>
    <path fill="#4e4f66"
        d="M536.31 395.85c-83.07 21.54-166.15 43.08-249.22 64.61-3.45.9-6.91 1.79-10.36 2.69-.39-.02-.79 0-1.2.1-17.1 4.15-34.36 7.52-51.77 10.11-2.55.38-3.47 2.32-3.21 4.27-10.4 2.26-20.27-2.73-29.6-8.95-13.48-9-26.88-18.13-40.32-27.19-12.66-8.54-25.42-16.93-37.95-25.66-11.35-7.91-22.41-16.62-30.58-27.91-3.36-4.65-11.18-.16-7.77 4.54 8.64 11.94 19.8 21.24 31.76 29.71 14.23 10.07 28.86 19.59 43.31 29.33 14.34 9.67 28.4 20.13 43.27 28.96 7.51 4.46 15.57 6.95 23.63 6.69.82.38 1.81.49 2.93.2 14.01-3.63 28.03-7.27 42.04-10.9 1.26.9 2.93 1.27 4.69.53 3.55-1.5 7.1-3 10.66-4.5l191.84-49.74c23.42-6.07 46.83-12.14 70.24-18.21 5.6-1.45 3.23-10.14-2.39-8.68z">
    </path>
    <path fill="#fff"
        d="M360.28 334.53c-1.51-4-4.06-7.1-7.44-8.93l1.81-5.85c.81-2.61-.61-5.17-2.71-6.59l1.98-3.51c3.23-5.72-4.33-12.05-9.15-7.53.9-2.02.52-4.23-.55-5.98.45-.7.89-1.4 1.34-2.11 3-4.72-2.44-10.26-6.93-8.93 2.6-4.37 5.21-8.74 7.81-13.11 2.61-4.38-1.45-9.19-5.61-9.07 2.54-3.45 5.09-6.89 7.65-10.33 4.63-6.24-5.76-12.09-10.36-6.06-7.1 9.31-14.2 18.61-21.3 27.92 8.81-13.87 18.16-27.41 27.46-40.88 4.39-6.38-6-12.37-10.36-6.06-4.73 6.88-9.6 13.66-14.58 20.35.49-.9.98-1.8 1.46-2.7 5.31-9.84 10.6-19.7 15.81-29.59 4.84-9.17 8.96-18.24 10.33-28.6.67-5.11-5.36-6.99-9.12-4.96 2.28-5.04 4.54-10.09 6.74-15.17 3.02-6.98-5.95-12.6-10.36-6.06-2.25 3.33-4.49 6.66-6.74 10 2.05-4.42 4.11-8.85 6.16-13.27 3.25-6.99-5.93-12.46-10.36-6.06l-4.07 5.88c-1.78-3.47-6.11-5.54-9.14-1.63-2.93 3.78-6.07 7.37-9.4 10.76 1-2.48 2.09-4.92 3.32-7.32 3.51-6.86-6.84-12.94-10.36-6.06-4.73 9.24-8.13 18.98-9.94 29.21-.81 4.57 4.13 10.14 8.81 6.78 1.03-.74 2.04-1.5 3.05-2.27-2.07 4.56-4.14 9.11-6.21 13.67-2.52 5.56 2.69 10.15 7.17 8.6-3.8 8.19-7.6 16.38-11.4 24.56-3.23 6.97 6 12.54 10.36 6.06.57-.85 1.14-1.69 1.71-2.54-4.67 8.67-9.46 17.27-14.38 25.8-3.29 5.69 5.04 12.74 9.42 7.27 1.4-1.75 2.78-3.51 4.15-5.27a4507.02 4507.02 0 01-18.79 34.02c-2.6 4.66 2.07 9.92 6.44 9.05-3.95 7.94-7.63 16.03-10.9 24.34-1.09 2.77.98 6.03 3.47 7.08 2.14.9 4.13.48 5.77-.73 2.1 3.17 7.21 4.15 10.16-.05.7-1 1.42-1.98 2.13-2.98-1.9 5.44 5.67 11.16 9.92 6.21 2.88-3.36 5.77-6.72 8.65-10.08 1.23 1.18 2.86 1.93 4.46 1.89.64 4.48 6 7.84 9.97 3.68l4.42-4.63c1.77 1.76 4.59 2.49 7.24 1.09.38-.2.75-.42 1.12-.63 1.11 1.5 2.89 2.53 4.85 2.53 1.48 0 2.85.44 3.43 1.97 2.71 7.16 14.31 4.05 11.57-3.19z"
        opacity="0.3"></path>
    <path fill="#252634"
        d="M371.08 344.91c23.92 6.64 47.81 13.4 71.66 20.28s47.67 13.89 71.45 21.02c6.26 1.87 12.58 3.61 18.77 5.69 4.27 1.43 9.32 3.6 10.8 8.26.58 1.83 3.48 1.05 2.89-.8-1.36-4.29-4.95-7.05-8.93-8.82-4.98-2.22-10.39-3.51-15.6-5.08-12.04-3.62-24.1-7.22-36.16-10.78a7372.913 7372.913 0 00-114.08-32.66c-1.86-.52-2.66 2.38-.8 2.89zM540.76 401.45c-23.02 6.03-46.04 12.09-69.04 18.18s-46.23 12.28-69.33 18.47c-22.99 6.16-45.97 12.36-68.94 18.59-23.08 6.26-46.15 12.55-69.22 18.88-11.15 3.06-22.32 6.68-33.75 8.57-10.11 1.67-21.05 1.52-30.39-3.17a31.963 31.963 0 01-6.21-4.07c-1.47-1.23-3.6.88-2.12 2.12 17.32 14.57 40.99 8.31 60.57 2.93a24024.244 24024.244 0 01210.13-56.76c23.34-6.19 46.91-12.41 70.38-18.56l8.72-2.28c1.87-.49 1.07-3.38-.8-2.89z">
    </path>
    <path fill="#252634"
        d="M185.53 471.97a2272.12 2272.12 0 00-69.06-52.23c-5.77-4.19-11.57-8.36-17.38-12.5-2.95-2.1-5.9-4.19-8.85-6.27-2.55-1.79-5.7-3.46-7.65-5.94-4.4-5.61 6.21-7.81 9.58-8.79 6.78-1.96 13.59-3.8 20.44-5.52 27.27-6.85 54.96-11.87 82.78-15.87 27.98-4.02 56.09-7.02 84.21-9.89 28-2.85 56.02-5.57 83.96-8.99 3.51-.43 7.02-.87 10.52-1.33 1.89-.24 1.91-3.25 0-3-28.65 3.71-57.39 6.56-86.13 9.47-28.67 2.9-57.35 5.87-85.9 9.8-28.49 3.92-56.87 8.81-84.83 15.58-7.04 1.7-14.04 3.53-21.01 5.48-3.28.92-6.6 1.8-9.84 2.86-2.33.76-4.77 1.82-6.35 3.77s-1.85 4.74-.6 7.04c1.38 2.54 3.99 4.17 6.28 5.78 6.07 4.27 12.13 8.56 18.16 12.89 24.02 17.23 47.7 34.92 71.02 53.09 2.85 2.22 5.7 4.45 8.54 6.69 1.5 1.18 3.64-.93 2.12-2.12z">
    </path>
    <path fill="#252634"
        d="M368.85 341.61c-1.93-29.73-3.87-59.47-5.8-89.2l-5.79-88.95-.81-12.46c-.21-3.16.24-7.58-2.21-10.02-1.81-1.81-4.45-1.92-6.86-1.82-2.13.09-5.04.67-6.67-1.08-1.32-1.41-3.44.71-2.12 2.12 1.54 1.65 3.72 2.07 5.9 2.07 2.06 0 4.37-.52 6.38.1 2.81.87 2.35 4.82 2.5 7.13.24 3.65.48 7.31.71 10.96.96 14.7 1.91 29.4 2.87 44.1l5.7 87.71 3.21 49.34c.12 1.92 3.13 1.93 3 0zM81.37 383.26c-2.85-17.33-5.15-34.75-7.02-52.22s-3.35-35.09-4.56-52.67c-1.21-17.51-2.16-35.04-3.02-52.57-.86-17.59-1.63-35.18-2.42-52.77-.39-8.74-1.02-17.51-1.14-26.25-.09-6.55 1.36-15.08 8.97-16.72 1.44-.31 2.84-.11 4.18.46.75.32 1.64-.34 1.85-1.05.25-.86-.3-1.53-1.05-1.85-6.39-2.69-13.07 2.44-15.37 8.21-1.46 3.66-1.66 7.71-1.57 11.61.1 4.49.38 8.97.58 13.45.82 18.13 1.61 36.25 2.46 54.38.85 18.12 1.77 36.23 2.93 54.33 1.16 18 2.56 36 4.37 53.95 1.81 17.99 4.04 35.94 6.83 53.81.35 2.23.71 4.45 1.07 6.68.31 1.9 3.2 1.09 2.89-.8z">
    </path>
    <path fill="#252634"
        d="M73.19 127.83c36.4.81 72.79 2.15 109.15 4.02s72.32 4.24 108.43 7.15a3809.9 3809.9 0 0161.3 5.44c1.92.19 1.91-2.82 0-3-36.24-3.51-72.53-6.5-108.85-8.96a3744.492 3744.492 0 00-170.02-7.64c-1.93-.04-1.93 2.96 0 3zM76.31 150.87a2540.786 2540.786 0 01266.38 11.39c1.92.18 1.91-2.82 0-3-34.6-3.3-69.26-5.9-103.97-7.78a2535.895 2535.895 0 00-162.42-3.6c-1.93.02-1.93 3.02 0 3zM344.84 161.02c-.03 23.08.55 46.16 1.75 69.21a1295.8 1295.8 0 0010.12 107.71c.11.81 1.14 1.23 1.85 1.05.87-.23 1.16-1.05 1.05-1.85-3.09-22.82-5.58-45.72-7.45-68.67-1.86-22.84-3.12-45.73-3.78-68.63-.37-12.94-.54-25.88-.53-38.82 0-1.93-3-1.93-3 0z">
    </path>
    <path fill="#252634"
        d="M72.74 150.08c-.49 14.98-.98 29.97-.64 44.95s1.81 29.81 3.83 44.65 4.13 29.44 5.87 44.2c1.76 14.9 3.28 29.84 4.55 44.79 1.43 16.76 2.54 33.55 3.36 50.35.09 1.92 3.09 1.93 3 0a1374.11 1374.11 0 00-7.28-89.73c-1.68-14.71-3.67-29.38-5.73-44.04s-3.9-29.76-4.44-44.78c-.61-16.79-.06-33.6.49-50.38.06-1.93-2.94-1.93-3 0z">
    </path>
    <path fill="#252634"
        d="M88.76 379.91c16.43-5.57 33.17-10.17 50.07-14.02s34.02-6.96 51.17-9.59c17.24-2.64 34.56-4.78 51.89-6.7s34.95-3.66 52.44-5.41 36.46-3.65 54.69-5.48l6.9-.69c1.9-.19 1.92-3.19 0-3-18.32 1.84-36.64 3.67-54.95 5.51-17.68 1.77-35.36 3.5-53.02 5.41-17.36 1.88-34.7 3.95-51.98 6.46s-34.31 5.46-51.28 9.12-33.91 8.07-50.49 13.43c-2.09.67-4.17 1.36-6.24 2.07-1.82.62-1.04 3.51.8 2.89zM91.75 163.62c-1.63-1.79-3.71-3.55-6.26-3.6-2.14-.05-4.59 1.36-5.05 3.58s.94 4.16 2.94 5.05c.93.41 1.88.68 2.89.83 1.16.17 2.34.3 3.5.09 1.37-.24 2.61-1.2 2.86-2.62s-.36-2.94-1.86-3.32c-.76-.2-1.66.25-1.85 1.05s.23 1.63 1.05 1.85c.3.08-.24-.14-.07-.04s-.28-.26-.08-.05c-.02-.02-.2-.3-.09-.1-.18-.35-.07-.22-.05-.12.08.42 0-.3.01.15.01.22-.08-.07.02-.12 0 0-.07.28-.08.28-.06-.04.16-.29.03-.1-.17.27.19-.18.04-.04-.07.07-.22.18.02 0-.08.05-.15.1-.23.14-.25.14-.07.03-.01 0-.09.03-.17.05-.26.08 0 0-.43.07-.21.04.17-.02-.24 0-.29.01-.42.01-.84-.02-1.25-.05a8.13 8.13 0 01-.49-.05c-.28-.03.02 0 .06 0-.11-.02-.23-.03-.34-.05-.34-.06-.68-.13-1.01-.22-.18-.05-.37-.1-.55-.16-.11-.04-.63-.25-.27-.09-.29-.13-.58-.28-.85-.45 0 0-.16-.09-.17-.12.04.13.2.18.03.02-.02-.02-.4-.36-.38-.38.01-.01.21.32.06.07-.03-.06-.07-.11-.1-.16 0 .01-.09-.17-.09-.17.05-.02.1.35.03.04-.02-.08-.04-.16-.07-.24-.07-.23.02.11 0 .1-.01 0-.01-.18-.01-.21v-.22l-.03.18c-.02-.1.21-.64.04-.26.06-.13.14-.25.21-.38.16-.28-.15.11 0 0 .07-.05.13-.14.19-.2.05-.05.11-.1.16-.15.26-.24-.25.14.06-.04.14-.08.33-.16.45-.25.15-.13-.31.1.01 0 .07-.02.15-.05.22-.07.16-.05.35-.07.51-.12.2-.07-.35 0 0 0 .11 0 .23-.01.34 0 .08 0 .15.01.23.01-.37 0 0 0 .1.02.23.05.45.12.67.19.27.09.09.03.03 0 .13.06.25.12.38.18.23.12.45.25.66.4l.29.2c.25.18-.11-.11.14.12.18.16.36.31.54.47.38.36.75.74 1.1 1.12.53.58 1.59.58 2.12 0 .57-.62.57-1.5 0-2.12zM108.46 163.01c-.42-1.83-1.99-3.29-3.77-3.78-.88-.24-1.89-.27-2.76.03-.97.33-1.72.93-2.31 1.75-1.04 1.44-1.11 3.43-.38 5.01a3.92 3.92 0 001.8 1.82c.91.42 1.83.51 2.82.34.91-.15 1.77-.62 2.44-1.25.77-.72 1.19-1.71 1.25-2.75.04-.78-.72-1.53-1.5-1.5-.85.04-1.45.66-1.5 1.5v.1c-.06.14.08-.27.03-.24-.02.01-.03.16-.04.19-.01.06-.03.12-.05.18 0 .03-.02.06-.03.09-.04.15.16-.32.08-.19l-.18.33c-.14.22.15-.17.09-.1-.05.05-.1.11-.15.17-.02.02-.28.26-.28.26s.28-.2.18-.14c-.03.02-.05.04-.08.06-.06.04-.13.08-.19.12-.11.07-.23.12-.35.18s.21-.1.21-.09l-.09.03c-.07.02-.14.05-.22.07-.13.04-.25.06-.38.09-.24.05.38-.03.14-.02-.08 0-.15.01-.23.01-.13 0-.26-.01-.38-.01-.09 0 .41.08.15.02-.07-.02-.14-.03-.22-.05l-.18-.06c-.22-.07.33.16.12.05l-.36-.21c-.12-.07.2.13.17.13l-.08-.07c-.05-.05-.1-.09-.14-.14s-.09-.1-.13-.15c-.09-.09.15.17.13.17 0 0-.07-.1-.07-.11-.07-.11-.13-.23-.19-.34-.11-.21.12.34.05.12-.02-.07-.05-.15-.07-.22-.02-.06-.03-.13-.05-.19s-.05-.32-.01-.03 0 .04 0-.03v-.23c0-.15.02-.29.02-.44 0-.1-.07.4-.01.13.02-.08.03-.15.05-.23.03-.13.08-.26.12-.39.07-.23-.16.32-.05.11.03-.07.07-.14.1-.21.06-.12.14-.23.21-.34 0-.01.04-.08.06-.08.03-.01-.24.28-.13.17.06-.05.1-.12.16-.17l.14-.14c.02-.02.05-.04.08-.07.1-.1-.18.16-.17.13 0-.07.31-.2.37-.23s.3-.13.05-.03 0 0 .06-.01c.11-.03.35-.14.46-.11.04.01-.39.03-.22.03h.66c.17 0-.35-.07-.18-.02s.33.07.5.12c.08.03.16.06.24.08.22.07-.33-.16-.05-.02.15.08.31.16.45.25.06.04.17.09.21.15.02.02-.27-.23-.16-.12.04.03.08.06.11.1.13.11.25.23.37.36.02.03.05.06.07.08.14.15-.08-.12-.1-.13.06.04.11.16.14.21.05.07.09.15.13.22.03.06.16.34.05.09s0 .03.03.1c.03.09.05.19.08.29.18.77 1.1 1.29 1.85 1.05.8-.26 1.24-1.02 1.05-1.85zM125.45 159.82c-3.14-1.83-7.23-1.46-10.03.82-1.02.83-.55 2.23-.09 3.24.34.74.86 1.44 1.48 1.96 1.44 1.23 3.24 1.75 5.1 1.36 2.06-.42 3.71-1.98 4.43-3.92.27-.74-.3-1.68-1.05-1.85-.85-.19-1.55.26-1.85 1.05-.14.37.15-.26-.04.09-.05.09-.09.18-.15.27-.06.1-.13.2-.2.31-.09.15.16-.17-.03.03-.15.16-.3.33-.47.47-.11.1-.2.14-.03.03-.1.07-.2.14-.31.2s-.21.12-.32.18c-.04.02-.35.15-.15.08s-.13.04-.16.05c-.12.04-.23.07-.35.1-.04.01-.38.09-.16.04s-.17.01-.22.02h-.3c-.06 0-.46-.05-.09.01-.2-.03-.39-.07-.58-.13-.11-.03-.23-.08-.34-.12.34.13-.02-.02-.07-.05-.18-.09-.34-.2-.51-.31-.31-.21.2.2-.07-.06-.09-.08-.18-.16-.26-.25-.07-.07-.14-.14-.2-.22-.1-.12-.14-.19-.03-.02-.12-.18-.24-.36-.34-.56-.05-.09-.09-.18-.13-.27.14.33 0 0-.02-.09-.04-.11-.07-.23-.09-.35-.02-.09-.07-.45-.02-.07l-.44 1.06.19-.16c-.11.09-.12.09 0 0 .14-.1.28-.19.42-.28.16-.1.33-.19.5-.27.08-.04.15-.07.23-.11.2-.1-.22.08 0 0 .32-.11.64-.23.97-.31.16-.04.33-.07.5-.1.03 0 .31-.04.11-.02-.22.03.18-.01.18-.01.34-.03.68-.03 1.01-.01.17 0 .34.03.51.04-.32-.03.12.03.23.05.35.07.7.17 1.03.3.03.01.28.11.11.04s.08.04.11.05c.17.08.34.17.5.27.68.39 1.67.18 2.05-.54s.19-1.63-.54-2.05zM80.45 387.93c18.69 14.11 37.38 28.22 56.06 42.32l28.23 21.31c8.87 6.7 17.65 13.56 26.71 20.01 9.4 6.69 19.4 12.72 30.53 16.01 1.86.55 2.65-2.35.8-2.89-9.89-2.92-18.86-8.11-27.3-13.94-8.97-6.19-17.55-12.96-26.25-19.52-18.62-14.06-37.24-28.12-55.86-42.17-10.47-7.9-20.94-15.81-31.41-23.71-1.54-1.16-3.04 1.44-1.51 2.59z">
    </path>
    <path fill="#252634"
        d="M196.64 483.89c22.14-.31 43.73-5.71 64.98-11.44 22.1-5.96 44.19-11.97 66.28-17.96 22.21-6.02 44.42-12.04 66.62-18.05s44.47-12.05 66.71-18.08c22.24-6.03 44.47-12.05 66.71-18.08l8.5-2.3c1.86-.5 1.07-3.4-.8-2.89-22.13 6-44.26 11.99-66.38 17.99s-44.47 12.05-66.71 18.08c-22.11 5.99-44.22 11.98-66.33 17.98-22.04 5.97-44.08 11.94-66.11 17.92-21.45 5.81-43.07 12.04-65.35 13.53-2.7.18-5.41.29-8.12.32-1.93.03-1.93 3.03 0 3zM133.66 392.16c31.16-6.24 62.33-12.48 93.62-18.03 31.29-5.56 62.71-10.44 94.3-13.93 17.72-1.96 35.49-3.47 53.3-4.44 1.92-.1 1.93-3.11 0-3-31.83 1.73-63.53 5.23-95.07 9.81-31.61 4.59-63.05 10.26-94.4 16.31-17.53 3.38-35.04 6.89-52.55 10.39-1.89.38-1.09 3.27.8 2.89z">
    </path>
    <path fill="#252634"
        d="M373.82 357.23c17.98 6.48 35.88 13.22 53.67 20.2 1.8.71 2.58-2.19.8-2.89-17.8-6.98-35.69-13.71-53.67-20.2-1.82-.66-2.6 2.24-.8 2.89zM130.16 392.94a423.648 423.648 0 0046.56 28.4c4.59 2.41 9.23 4.73 13.91 6.97 1.73.83 3.26-1.76 1.51-2.59a423.71 423.71 0 01-47.57-26.66c-4.35-2.82-8.65-5.73-12.89-8.71-1.58-1.11-3.08 1.49-1.51 2.59z">
    </path>
    <path fill="#252634"
        d="M193.3 428.22c30.23-6.04 60.43-12.21 90.6-18.53 30.01-6.28 59.99-12.7 89.94-19.25 16.84-3.68 33.66-7.41 50.48-11.18 1.88-.42 1.09-3.32-.8-2.89-30.08 6.74-60.19 13.35-90.32 19.82-29.98 6.43-59.98 12.73-90.02 18.89-16.88 3.46-33.78 6.88-50.68 10.26-1.89.38-1.09 3.27.8 2.89zM178.01 421.26c5.44-1.67 10.87-3.44 16.34-5 3.87-1.1 10.52-1.99 12.05 3.11.55 1.84 3.45 1.06 2.89-.8-1.67-5.56-7.91-6.83-12.94-5.89-3.16.59-6.24 1.73-9.31 2.67-3.27 1.01-6.55 2.01-9.82 3.02-1.84.56-1.06 3.46.8 2.89z">
    </path>
    <path fill="#252634"
        d="M201.93 414.35c4.93-2.51 10.16-4.57 15.56-5.84 1.21-.28 2.46-.47 3.5.35s1.83 1.96 2.68 2.94c1.99 2.28 3.98 4.57 5.97 6.85 1.27 1.46 3.39-.67 2.12-2.12-2.21-2.53-4.41-5.06-6.62-7.59-.9-1.04-1.77-2.17-2.96-2.89-1.28-.78-2.75-.88-4.2-.67-2.97.43-5.95 1.52-8.76 2.54a78.14 78.14 0 00-8.8 3.85c-1.72.88-.2 3.47 1.51 2.59z">
    </path>
    <path fill="#252634"
        d="M220.76 408.27c9.09-.72 18.09-2.44 26.78-5.2 2.07-.66 4.09-1.47 6.17-2.09s4.28-.85 6.06.77c1.5 1.37 2.69 3.12 3.96 4.69 1.52 1.89 3.05 3.77 4.57 5.66 1.21 1.5 3.32-.63 2.12-2.12l-4.87-6.04c-1.33-1.65-2.58-3.49-4.25-4.82-3.8-3.03-8.27-1.07-12.31.31a115.83 115.83 0 01-28.23 5.83c-1.91.15-1.93 3.15 0 3z">
    </path>
    <path fill="#252634"
        d="M257.28 402.68c20.58-5.24 41.24-10.2 61.96-14.87 1.32-.3 2.72-.78 4.08-.78 1.23 0 2.01.7 2.7 1.66 1.7 2.35 3.11 4.94 4.64 7.4 1.02 1.63 3.62.13 2.59-1.51-1.44-2.31-2.83-4.66-4.33-6.94-1.19-1.81-2.71-3.37-4.98-3.57-2.51-.22-5.26.81-7.68 1.35-2.74.62-5.48 1.25-8.22 1.88-11.03 2.54-22.05 5.16-33.04 7.87-6.18 1.52-12.35 3.07-18.52 4.64-1.87.48-1.08 3.37.8 2.89z">
    </path>
    <path fill="#252634"
        d="M326.35 387.23c6.8-.56 13.29-2.09 19.75-4.22 2.89-.96 6.22-2.06 9.26-1.11 2.17.68 4.66 2.75 4.28 5.28-.28 1.89 2.61 2.7 2.89.8.46-3.09-.98-5.74-3.47-7.53-2.84-2.04-6.37-2.16-9.69-1.48-3.84.79-7.5 2.38-11.3 3.34s-7.77 1.61-11.72 1.93c-1.91.16-1.93 3.16 0 3z">
    </path>
    <path fill="#252634"
        d="M357.32 380.66c5.86-1.46 11.7-3.05 17.6-4.37 2.28-.51 3.53.32 4.75 2.17 1.08 1.63 1.99 3.4 3.47 4.72s3.57-.84 2.12-2.12c-3.19-2.83-4.11-8.4-9.44-7.94-3.13.28-6.32 1.42-9.37 2.18l-9.93 2.47c-1.87.47-1.08 3.36.8 2.89z">
    </path>
    <path fill="#252634"
        d="M379.14 375.97c9.39-2.33 18.9-4.11 28.5-5.27 1.89-.23 1.92-3.23 0-3-9.87 1.2-19.65 2.98-29.3 5.38-1.87.47-1.08 3.36.8 2.89zM161.09 413.17c6.62-1.64 13.24-3.27 19.86-4.91 3.18-.79 6.42-1.87 9.66-2.37 1.62-.25 2.35 1.06 3.25 2.18 1.09 1.36 2.18 2.71 3.28 4.07 1.21 1.5 3.32-.63 2.12-2.12s-2.28-2.83-3.42-4.25c-.99-1.22-1.99-2.47-3.6-2.83s-3.19.24-4.67.6l-5.5 1.36c-7.26 1.79-14.51 3.59-21.77 5.38-1.87.46-1.08 3.36.8 2.89z">
    </path>
    <path fill="#252634"
        d="M193.67 404.83c6.24-2.36 12.6-4.39 19.06-6.07 2.61-.68 5.28-1.56 7.48.5 1.71 1.6 2.71 3.87 3.56 6.02.7 1.78 3.6 1 2.89-.8-1-2.54-2.15-5.15-4.1-7.12-2.17-2.18-4.89-2.78-7.86-2.17-7.42 1.52-14.76 4.08-21.83 6.75-1.79.68-1.01 3.58.8 2.89z">
    </path>
    <path fill="#252634"
        d="M219.56 397.27c6.77-2.3 13.62-4.34 20.55-6.09 1.56-.39 3.43-1.17 5.05-1.08 1.53.09 2.55 1.74 3.44 2.8 2.34 2.79 4.69 5.57 7.03 8.36 1.24 1.48 3.36-.65 2.12-2.12-2.56-3.04-5.1-6.09-7.67-9.12-1-1.18-2.13-2.34-3.68-2.75-1.72-.45-3.54.15-5.21.55a265.63 265.63 0 00-22.45 6.56c-1.82.62-1.04 3.52.8 2.89z">
    </path>
    <path fill="#252634"
        d="M250.07 391.21c7.63-2.15 15.33-4 23.11-5.53 1.39-.27 3.76-1.19 5.08-.38.77.47 1.14 1.5 1.45 2.3.84 2.17 1.63 4.45 4.07 5.2 1.85.57 2.64-2.33.8-2.89-.89-.27-1.26-1.28-1.58-2.07-.44-1.08-.78-2.23-1.39-3.23-1.92-3.13-5.13-2.62-8.27-2.01-8.1 1.57-16.12 3.49-24.06 5.72-1.86.52-1.07 3.42.8 2.89z">
    </path>
    <path fill="#252634"
        d="M283.8 385.69c2.59-2.77 6.56-4.24 10.33-3.45 3.52.73 6.66 3.24 8.04 6.58.31.75.99 1.27 1.85 1.05.71-.19 1.36-1.1 1.05-1.85-1.77-4.31-5.52-7.71-10.14-8.68s-9.91.65-13.25 4.23c-1.32 1.41.8 3.54 2.12 2.12z">
    </path>
    <path fill="#252634"
        d="M298.55 381.83c2.67-1.3 5.37-2.54 8.11-3.69 2.55-1.07 5.32-2.51 8.08-2.88 2.5-.34 3.49 1.25 4.38 3.28.82 1.88 1.6 3.65 3.36 4.83 1.61 1.08 3.11-1.52 1.51-2.59-1.73-1.16-2.09-3.74-3.11-5.44-1.33-2.22-3.55-3.36-6.14-3.09-3 .31-5.91 1.76-8.66 2.9a163.4 163.4 0 00-9.05 4.08c-1.73.85-.22 3.43 1.51 2.59z">
    </path>
    <path fill="#252634"
        d="M317.49 376.62c7.03-1.31 14.06-2.62 21.09-3.94 3.13-.58 6.56-1.61 9.77-1.15 2.58.38 5.2 2.26 4.83 5.12-.25 1.91 2.76 1.89 3 0 .39-3.05-1.73-5.87-4.37-7.17-3.31-1.63-7.11-.98-10.58-.34-8.18 1.52-16.35 3.05-24.52 4.58-1.9.35-1.09 3.25.8 2.89z">
    </path>
    <path fill="#252634"
        d="M352.5 370.13c2.31-1.27 4.69-2.41 7.14-3.35 1.29-.5 2.59-.95 3.92-1.35 1.12-.34 2.42-.76 3.57-.3 1.4.57 2.14 2.24 2.81 3.48.84 1.56 1.72 3.18 3.12 4.31 1.49 1.2 3.62-.91 2.12-2.12-3.03-2.44-3.29-7.37-7.44-8.63-2.77-.84-5.95.6-8.51 1.57a64.105 64.105 0 00-8.25 3.8c-1.69.93-.18 3.52 1.51 2.59z">
    </path>
    <path fill="#252634"
        d="M372.43 366.27c2.92-1.31 6.15-1.74 9.39-1.36.81.1 1.5-.76 1.5-1.5 0-.89-.69-1.4-1.5-1.5-3.73-.44-7.49.23-10.9 1.76-.74.33-.92 1.41-.54 2.05.44.76 1.31.87 2.05.54zM151.25 406.8l10.66-5.17 5.33-2.58c1.59-.77 3.26-1.76 5.04-1.99 2.6-.33 4.49 1.75 6.15 3.42 1.76 1.77 3.61 3.53 6.09 4.15 1.87.47 2.67-2.42.8-2.89-2.53-.64-4.18-2.88-5.99-4.59-2.08-1.97-4.5-3.43-7.47-3.03-1.79.24-3.42 1.03-5.03 1.8-1.85.9-3.7 1.79-5.55 2.69-3.85 1.87-7.7 3.73-11.55 5.6-1.74.84-.22 3.43 1.51 2.59zM184.69 395.6c4.88-2.77 11.07-2.53 15.77.51 1.63 1.05 3.13-1.54 1.51-2.59-5.59-3.61-13.02-3.78-18.79-.51-1.68.95-.17 3.54 1.51 2.59z">
    </path>
    <path fill="#252634"
        d="M193.82 391.78c4.39-1.24 8.81-2.8 13.3-3.61 3.13-.56 8.45.02 8.75 4.18.14 1.91 3.14 1.93 3 0-.35-4.82-5.05-7.49-9.52-7.41-2.67.05-5.26.84-7.82 1.55l-8.52 2.4c-1.86.52-1.07 3.42.8 2.89z">
    </path>
    <path fill="#252634"
        d="M215.62 388.62c6.06-3.18 13.16-3.97 19.78-2.25 1.87.49 2.67-2.41.8-2.89-7.41-1.93-15.32-1-22.09 2.55-1.71.9-.2 3.49 1.51 2.59z">
    </path>
    <path fill="#252634"
        d="M235.33 382.62c3.08-2.52 7.78-6.07 11.92-3.85 3.27 1.76 4.5 5.92 5.48 9.23.54 1.85 3.44 1.06 2.89-.8-1.24-4.23-3.01-9.28-7.33-11.26-5.5-2.51-10.94 1.16-15.08 4.55-.63.52-.53 1.58 0 2.12.61.63 1.5.51 2.12 0z">
    </path>
    <path fill="#252634"
        d="M253.83 380.78c3.72-1.94 7.7-4.1 12-4.24 3.33-.11 6.93 1.04 8.77 3.97 1.02 1.63 3.62.13 2.59-1.51-2.29-3.65-6.5-5.41-10.7-5.47-5.08-.07-9.79 2.37-14.17 4.66-1.71.89-.2 3.48 1.51 2.59z">
    </path>
    <path fill="#252634"
        d="M278.51 376.7c1.44-2.61 4.29-4.26 7.29-4.1s5.46 2.14 6.65 4.75c.34.74 1.4.92 2.05.54.76-.44.87-1.31.54-2.05-1.63-3.58-5.32-6.02-9.24-6.23s-7.95 2.11-9.88 5.59c-.93 1.69 1.66 3.21 2.59 1.51zM297.06 371.6c3.81-4.22 11.61-3.72 14.69 1.16 1.03 1.63 3.62.13 2.59-1.51-4.05-6.43-14.26-7.47-19.4-1.76-1.29 1.43.83 3.56 2.12 2.12zM324.8 366.33c4.99-2.64 11.49-1.27 15.14 2.97 1.26 1.46 3.38-.67 2.12-2.12-4.55-5.28-12.66-6.67-18.78-3.44-1.71.9-.19 3.49 1.51 2.59z">
    </path>
    <path fill="#4e4f66"
        d="M426.39 411.33l-20.52-5.12c-.38-.1-.74-.11-1.07-.07-.23-.46-.62-.87-1.19-1.17-3.33-1.75-7.41-3.72-11.64-5.14-.14-.11-.29-.2-.47-.28-3.53-1.65-6.97-2.76-10.85-3.3-.59-.08-1.17.02-1.69.24-4.03-.39-7.92-.16-11.91.58-.03 0-.05.02-.08.02-4.6-.09-8.9.82-13.04 2.69-11.35.99-22.46 3.21-33.29 6.77-.47.15-.87.43-1.2.78-3.28.94-6.52 1.98-9.75 3.14-.75.1-1.5.21-2.25.3-1.14.13-1.94.77-2.4 1.58-1.22.32-2.43.69-3.64 1.12-2.63.94-3.06 5.04 0 5.79l2.69.65c.06.05.12.11.19.15.13.73.57 1.43 1.4 1.96 5.41 3.46 10.78 7.37 16.49 10.5 5.11 4.27 11.02 7.89 16.78 7.89.2 0 .39-.02.58-.05 2.12.61 4.31.69 6.7.36 1.2-.17 1.85-.99 2.05-1.98a40.29 40.29 0 007.84-1.94c.93-.33 1.53-.93 1.85-1.61.37.08.76.1 1.16.03 7.47-1.35 14.37-4.11 20.72-8.25 2.23-.65 4.45-1.42 6.63-2.31.15-.06.29-.14.42-.22 5.58-.81 11.11-2.03 16.6-3.23 1.35-.26 2.71-.54 4.05-.88.12-.03.23-.08.34-.12 2.04-.08 4.08-.26 6.14-.53h.03c.27-.04.53-.06.8-.1.88-.13 1.47-.57 1.81-1.15.27 0 .55-.01.82-.01.1 0 .2-.02.29-.03.23.04.46.09.69.13 1.76.33 3.05-.75 3.53-2.06l.87.21c.37.09.74.19 1.11.28h.06c.24.06.48.12.71.18 3.75.93 5.35-4.85 1.6-5.79zm-32.51 2.65a3.53 3.53 0 00-.45-1.06c1.16.13 2.32.24 3.49.33-.48.04-.96.06-1.44.1-.62.05-1.15.29-1.6.63z">
    </path>
    <path fill="#252634"
        d="M352.11 363.14a55.898 55.898 0 0115.99-7.09c1.86-.5 1.07-3.39-.8-2.89a58.865 58.865 0 00-16.71 7.4c-1.62 1.04-.11 3.64 1.51 2.59zM141.55 393.75c6.43-3.64 15.45-1.75 19.75 4.31 1.11 1.56 3.71.06 2.59-1.51-5.26-7.39-15.92-9.87-23.86-5.38-1.68.95-.17 3.54 1.51 2.59zM174.85 387.83c2.69-4.05 9.8-4.16 12.58-.17.46.66 1.31.97 2.05.54.66-.38 1-1.38.54-2.05-4.11-5.89-13.77-5.83-17.76.17-1.07 1.61 1.53 3.12 2.59 1.51zM199.73 381c5.63-.64 11.29-.21 16.74 1.32 1.86.52 2.66-2.37.8-2.89-5.69-1.59-11.67-2.09-17.54-1.42-.8.09-1.5.62-1.5 1.5 0 .74.69 1.59 1.5 1.5zM225.51 377.95c3.4-1.97 7.46-2.76 11.35-2.09.8.14 1.62-.21 1.85-1.05.2-.72-.24-1.71-1.05-1.85-4.7-.8-9.52 0-13.66 2.4-1.67.97-.16 3.56 1.51 2.59zM251.34 372.64c.3.04-.37-.06 0 0l.31.06c.18.04.35.09.52.14s.34.12.51.18c.28.1-.33-.15.01 0l.24.12c.33.17.66.37.96.58.05.03.1.07.15.11-.17-.13-.21-.17-.13-.1.07.06.14.11.21.17.15.13.29.26.43.4.13.13.25.26.37.4.06.07.12.14.17.21.19.22-.21-.28.01.02s.42.62.59.96l.12.24c.02.04.19.39.07.15s.04.11.05.16c.03.08.06.17.09.26.12.37.2.76.25 1.14.05.34.41.73.69.9.32.19.8.27 1.16.15s.71-.34.9-.69c.2-.38.21-.73.15-1.16-.25-1.85-1.24-3.62-2.57-4.91-1.45-1.41-3.28-2.25-5.28-2.49-.36-.04-.82.2-1.06.44-.26.26-.46.69-.44 1.06.04.89.66 1.4 1.5 1.5zM267.27 370.71l.57-.12c.03 0 .31-.04.12-.02s.09 0 .12 0c.38-.03.77-.04 1.15-.02.19 0 .38.03.57.05-.32-.03.13.02.24.04.38.07.75.17 1.12.29.16.05.32.11.48.17.27.1-.1-.06.06.02.08.04.16.07.23.11.33.16.64.34.95.54.09.06.18.12.26.18.02.02.24.18.11.07s.08.06.1.08l.24.21c.29.26.55.54.8.83.51.6 1.6.56 2.12 0 .59-.64.54-1.48 0-2.12-2.42-2.84-6.43-4.05-10.03-3.2-.76.18-1.29 1.09-1.05 1.85.26.8 1.03 1.24 1.85 1.05zM286.85 365.73l3.12.79c.38.1.81.05 1.16-.15.31-.18.61-.54.69-.9.09-.38.07-.81-.15-1.16s-.51-.59-.9-.69l-3.12-.79c-.38-.1-.81-.05-1.16.15-.31.18-.61.54-.69.9-.09.38-.07.81.15 1.16s.51.59.9.69zM309.13 361.57c1.04-.78 2.08-1.56 3.13-2.34.17-.09.32-.22.42-.39.13-.14.22-.31.27-.51.1-.36.05-.84-.15-1.16s-.51-.6-.9-.69-.84-.09-1.16.15c-1.04.78-2.08 1.56-3.13 2.34-.17.09-.32.22-.42.39-.13.14-.22.31-.27.51-.1.36-.05.84.15 1.16s.51.6.9.69.84.09 1.16-.15zM382.24 392.59a2453 2453 0 00-66.62 14.93c-6.26 1.49-12.51 3.01-18.75 4.56-1.87.46-1.08 3.36.8 2.89a2473.77 2473.77 0 0166.5-15.46c6.28-1.37 12.57-2.71 18.87-4.03 1.89-.4 1.09-3.29-.8-2.89z">
    </path>
    <path fill="#252634"
        d="M295.85 417.11a415.168 415.168 0 0039.67 25.35c1.69.95 3.2-1.64 1.51-2.59a415.168 415.168 0 01-39.67-25.35c-1.57-1.13-3.07 1.47-1.51 2.59zM381.65 396.37a383.989 383.989 0 0053.77 20.55c1.85.55 2.65-2.34.8-2.89a378.353 378.353 0 01-53.06-20.24c-1.74-.82-3.26 1.77-1.51 2.59z">
    </path>
    <path fill="#252634"
        d="M431.6 415c-13.63 2.78-27.4 5.21-40.91 8.57-12.54 3.12-24.31 8.37-36.53 12.45-6.77 2.26-13.72 4.1-20.84 4.76-1.91.18-1.92 3.18 0 3 12.85-1.19 24.86-5.92 36.83-10.42 6.11-2.29 12.25-4.5 18.55-6.18s13.31-3.09 20-4.45l23.7-4.83c1.89-.39 1.09-3.28-.8-2.89z">
    </path>
    <path fill="#fff"
        d="M533.3 389.68c-33.1-10.38-65.87-21.87-98.27-34.47-3.08-1.2-5.38.44-6.37 2.87-10.75-3.99-21.5-7.97-32.25-11.96-6.95-2.58-9.94 9.01-3.04 11.57l37.77 14.01c3.56 1.32 7.13 2.64 10.69 3.97-4.35 2.12-4.89 9.82.71 11.25 1.35.34 2.7.66 4.05.99.26.35.58.67.95.96-3.59.5-7.18 1.1-10.75 1.8-3.5.68-4.77 4.93-3.73 8.11-4.43.69-8.86 1.44-13.27 2.29-6.39 1.23-4.84 11.94 1.52 11.79 6.79-.16 13.57-.7 20.31-1.61-5.34 3.29-1.47 12.88 4.64 10.82 28.4-9.57 57.5-16.53 87.05-20.81 5.93-.86 4.93-10.03 0-11.57z"
        opacity="0.3"></path>
</svg>